<svg width="69" height="53" viewBox="0 0 69 53" fill="none" xmlns="http://www.w3.org/2000/svg">
<path d="M57.7243 4.4178C53.3133 2.35397 48.5967 0.854061 43.6657 0C43.0602 1.09488 42.3527 2.56751 41.8649 3.73898C36.6231 2.95068 31.4295 2.95068 26.2841 3.73898C25.7964 2.56751 25.0728 1.09488 24.4618 0C19.5255 0.854061 14.8036 2.35948 10.3925 4.42873C1.49531 17.8735 -0.916567 30.9844 0.289375 43.9091C6.19045 48.3159 11.9093 50.9928 17.5316 52.7446C18.9198 50.834 20.1579 48.8031 21.2245 46.6627C19.1932 45.8908 17.2476 44.9383 15.4092 43.8325C15.8969 43.4712 16.374 43.0934 16.8349 42.7047C28.0474 47.9491 40.2302 47.9491 51.3088 42.7047C51.7751 43.0934 52.252 43.4712 52.7344 43.8325C50.8906 44.9437 48.9397 45.8962 46.9084 46.6682C47.975 48.8031 49.2077 50.8396 50.6013 52.75C56.229 50.9983 61.9532 48.3214 67.8543 43.9091C69.2692 28.9261 65.437 15.9356 57.7243 4.4178ZM22.752 35.9605C19.3861 35.9605 16.6258 32.8182 16.6258 28.9917C16.6258 25.1652 19.3272 22.0175 22.752 22.0175C26.177 22.0175 28.9372 25.1597 28.8782 28.9917C28.8836 32.8182 26.177 35.9605 22.752 35.9605ZM45.3916 35.9605C42.0257 35.9605 39.2654 32.8182 39.2654 28.9917C39.2654 25.1652 41.9667 22.0175 45.3916 22.0175C48.8164 22.0175 51.5768 25.1597 51.5178 28.9917C51.5178 32.8182 48.8164 35.9605 45.3916 35.9605Z" fill="white"/>
</svg>
